<svg data-v-0dd9719b="" version="1.0" xmlns="http://www.w3.org/2000/svg" xmlns:xlink="http://www.w3.org/1999/xlink" width="100%" height="100%" viewBox="0 0 340.000000 250.000000" preserveAspectRatio="xMidYMid meet" color-interpolation-filters="sRGB" style="margin: auto;"> <rect data-v-0dd9719b="" x="0" y="0" width="100%" height="100%" fill="#ffffff" fill-opacity="0" class="background"></rect>  <g data-v-0dd9719b="" fill="#41b883" class="basesvg" transform="translate(87.60000610351562,101.8637466430664)"><g data-gra="path-name" fill-rule="" class="tp-name" transform="translate(0,0)"><g transform="scale(1)"><g><path d="M29.85 0L29.85 0 29.85-21.05 19.66-4.6Q19.66-4.56 19.62-4.6L19.62-4.6 9.43-21.05 9.43 0Q9.43 0.04 9.38 0.04L9.38 0.04 3.17 0.04Q3.13 0.04 3.13 0L3.13 0 3.13-31.24Q3.13-31.28 3.17-31.28L3.17-31.28 10.5-31.28 10.55-31.28 19.66-16.53 28.73-31.28 28.78-31.28 36.11-31.28Q36.15-31.28 36.15-31.24L36.15-31.24 36.15 0Q36.15 0.04 36.11 0.04L36.11 0.04 29.9 0.04Q29.85 0.04 29.85 0ZM52.64-10.5L45.89-10.5 45.85-10.5 45.85-10.55 49.25-21.05Q49.25-21.18 49.29-21.05L49.29-21.05 52.69-10.55 52.69-10.5 52.64-10.5ZM43.88-4.29L54.65-4.29 54.7-4.29 56.08 0 56.08 0 56.04 0.04 42.5 0.04 42.45 0 42.45 0 43.84-4.29 43.88-4.29ZM83.03-15.64L89.29-15.64Q89.29-15.64 89.29-15.64L89.29-15.64 89.29-4.56 89.29-4.56Q88.17-3.44 86.87-2.55L86.87-2.55Q84.95-1.3 82.74-0.63 80.53 0.04 78.2 0.04L78.2 0.04 78.2 0.04 62.61 0.04 62.61 0.04 62.61 0.04 62.61 0.04 62.56 0 62.56 0 52.51-31.24 52.51-31.28 52.55-31.28 78.2-31.28 78.2-31.28Q81.38-31.28 84.21-30.1 87.05-28.91 89.29-26.68L89.29-26.68Q89.33-26.68 89.29-26.63L89.29-26.63 84.86-22.21Q84.86-22.21 84.82-22.21L84.82-22.21Q83.48-23.59 81.76-24.29 80.03-24.98 78.22-24.98 76.42-24.98 74.69-24.29 72.97-23.59 71.63-22.21L71.63-22.21Q70.25-20.87 69.58-19.15 68.91-17.43 68.91-15.64 68.91-13.85 69.58-12.11 70.25-10.37 71.63-9.03L71.63-9.03Q72.75-7.86 74.16-7.19 75.57-6.52 77.06-6.35 78.56-6.17 80.08-6.48 81.6-6.79 82.98-7.6L82.98-7.6 82.98-15.64Q82.98-15.64 83.03-15.64L83.03-15.64ZM101.89 0.04L95.63 0.04Q95.59 0.04 95.59 0L95.59 0 95.59-31.24Q95.59-31.28 95.63-31.28L95.63-31.28 101.89-31.28Q101.89-31.28 101.89-31.24L101.89-31.24 101.89 0Q101.89 0.04 101.89 0.04L101.89 0.04ZM117.62-6.3L125.53-6.3Q126.82-6.3 127.72-7.19 128.61-8.09 128.61-9.38L128.61-9.38Q128.61-10.68 127.72-11.57 126.82-12.47 125.53-12.47L125.53-12.47 117.62-12.47Q115.65-12.47 113.93-13.21 112.21-13.94 110.94-15.22 109.66-16.49 108.93-18.21 108.19-19.93 108.19-21.9L108.19-21.9Q108.19-23.82 108.93-25.54 109.66-27.26 110.94-28.53 112.21-29.81 113.93-30.54 115.65-31.28 117.62-31.28L117.62-31.28 125.53-31.28Q127.49-31.28 129.19-30.54 130.89-29.81 132.16-28.53 133.44-27.26 134.2-25.54 134.96-23.82 134.96-21.9L134.96-21.9Q134.96-21.85 134.91-21.85L134.91-21.85 128.65-21.85Q128.61-21.85 128.61-21.9L128.61-21.9Q128.61-23.15 127.72-24.06 126.82-24.98 125.53-24.98L125.53-24.98 117.62-24.98Q116.32-24.98 115.4-24.06 114.49-23.15 114.49-21.9L114.49-21.9Q114.49-20.6 115.4-19.68 116.32-18.77 117.62-18.77L117.62-18.77 125.53-18.77Q127.49-18.77 129.19-18.03 130.89-17.29 132.16-16.02 133.44-14.75 134.2-13.03 134.96-11.31 134.96-9.38L134.96-9.38Q134.96-7.42 134.2-5.72 133.44-4.02 132.16-2.73 130.89-1.43 129.19-0.69 127.49 0.04 125.53 0.04L125.53 0.04 117.62 0.04Q115.65 0.04 113.93-0.69 112.21-1.43 110.94-2.73 109.66-4.02 108.93-5.72 108.19-7.42 108.19-9.38L108.19-9.38Q108.19-9.38 108.23-9.38L108.23-9.38 114.49-9.38Q114.49-9.38 114.49-9.38L114.49-9.38Q114.49-8.09 115.4-7.19 116.32-6.3 117.62-6.3L117.62-6.3ZM148.58 0.04L141.26 0.04Q141.21 0.04 141.21 0L141.21 0 141.21-31.24Q141.21-31.28 141.26-31.28L141.26-31.28 147.51-31.28Q147.51-31.28 147.51-31.24L147.51-31.24 147.51-10.23 150.86-15.64 154.57-21.58 154.57-21.58 160.56-31.28 160.56-31.28 167.93-31.28 167.93-31.28 167.93-31.24 158.28-15.64 167.93 0 167.93 0 167.93 0.04 160.56 0.04 160.56 0 154.57-9.61 148.63 0 148.58 0.04Z" transform="translate(-3.130000114440918, 31.280000686645508)"></path></g> <!----> <!----> <!----> <!----> <!----> <!----> <!----></g></g> <g data-gra="path-slogan" fill-rule="" class="tp-slogan" fill="#35495e" transform="translate(5,37.32000160217285)"><rect x="0" height="1" y="3.9750003814697266" width="8.30499267578125"></rect> <rect height="1" y="3.9750003814697266" width="8.30499267578125" x="146.4949951171875"></rect> <g transform="translate(11.30499267578125,0)"><g transform="scale(1)"><path d="M9.14-8.58L9.14 0L8.02 0L8.02-5.06Q8.02-5.77 8.02-7.22L8.02-7.22L5.58 0L4.41 0L2.02-7.22L1.97-7.22Q1.97-6.70 2.02-5.67L2.02-5.67Q2.02-5.16 2.02-5.06L2.02-5.06L2.02 0L0.84 0L0.84-8.58L2.53-8.58L5.02-1.31L7.45-8.58L9.14-8.58ZM16.50 0L15.66-2.48L12.19-2.48L11.30 0L10.13 0L13.36-8.58L14.67-8.58L17.77 0L16.50 0ZM13.92-7.31L12.56-3.52L15.23-3.52L13.97-7.31L13.92-7.31ZM21.33-4.31L19.97-3.05L19.97 0L18.80 0L18.80-8.58L19.97-8.58L19.97-4.41L24.14-8.58L25.78-8.58L22.17-5.11L25.88 0L24.33 0L21.33-4.31ZM28.08-1.03L33.23-1.03L33.23 0L26.91 0L26.91-8.58L33.14-8.58L33.14-7.59L28.08-7.59L28.08-4.92L32.77-4.92L32.77-3.89L28.08-3.89L28.08-1.03ZM45.23-6.05L45.23-6.05L44.11-6.05Q43.69-7.78 41.72-7.83L41.72-7.83Q39-7.69 38.91-4.36L38.91-4.36Q38.91-0.80 41.77-0.80L41.77-0.80Q43.73-0.84 44.20-3.19L44.20-3.19L45.33-3.19Q44.81 0.05 41.53 0.14L41.53 0.14Q37.78 0 37.69-4.31L37.69-4.31Q37.88-8.63 41.72-8.81L41.72-8.81Q44.77-8.72 45.23-6.05ZM53.48-4.27L53.48-4.27Q53.30-7.64 50.48-7.83L50.48-7.83Q47.63-7.69 47.48-4.27L47.48-4.27Q47.63-0.94 50.48-0.80L50.48-0.80Q53.30-0.98 53.48-4.27ZM54.66-4.27L54.66-4.27Q54.38 0 50.48 0.14L50.48 0.14Q46.55 0 46.27-4.27L46.27-4.27Q46.50-8.72 50.48-8.81L50.48-8.81Q54.38-8.67 54.66-4.27ZM59.53 0L56.06 0L56.06-8.58L59.58-8.58Q63.05-8.39 63.19-4.41L63.19-4.41Q63-0.09 59.53 0L59.53 0ZM59.39-7.64L57.23-7.64L57.23-0.98L59.48-0.98Q61.92-1.13 62.02-4.31L62.02-4.31Q61.97-7.55 59.39-7.64L59.39-7.64ZM65.95-1.03L71.11-1.03L71.11 0L64.78 0L64.78-8.58L71.02-8.58L71.02-7.59L65.95-7.59L65.95-4.92L70.64-4.92L70.64-3.89L65.95-3.89L65.95-1.03ZM79.17-7.64L77.11-7.64L77.11-4.97L79.17-4.97Q81-4.92 80.95-6.38L80.95-6.38Q80.95-7.64 79.17-7.64L79.17-7.64ZM79.64 0L75.94 0L75.94-8.58L79.73-8.58Q82.03-8.48 82.13-6.42L82.13-6.42Q82.13-5.16 81-4.64L81-4.64Q82.59-4.08 82.59-2.53L82.59-2.53Q82.45-0.09 79.64 0L79.64 0ZM79.36-3.98L77.11-3.98L77.11-0.98L79.59-0.98Q81.38-1.03 81.42-2.53L81.42-2.53Q81.42-3.98 79.36-3.98L79.36-3.98ZM85.22-1.03L90.38-1.03L90.38 0L84.05 0L84.05-8.58L90.28-8.58L90.28-7.59L85.22-7.59L85.22-4.92L89.91-4.92L89.91-3.89L85.22-3.89L85.22-1.03ZM103.45-8.58L103.45 0L102.33 0L102.33-5.06Q102.33-5.77 102.33-7.22L102.33-7.22L99.89 0L98.72 0L96.33-7.22L96.28-7.22Q96.28-6.70 96.33-5.67L96.33-5.67Q96.33-5.16 96.33-5.06L96.33-5.06L96.33 0L95.16 0L95.16-8.58L96.84-8.58L99.33-1.31L101.77-8.58L103.45-8.58ZM110.81 0L109.97-2.48L106.50-2.48L105.61 0L104.44 0L107.67-8.58L108.98-8.58L112.08 0L110.81 0ZM108.23-7.31L106.88-3.52L109.55-3.52L108.28-7.31L108.23-7.31ZM119.53-3.61L116.91-3.61L116.91-4.59L120.66-4.59L120.66 0L119.91 0L119.63-1.08Q118.64 0.09 116.81 0.14L116.81 0.14Q115.08 0.14 114.14-0.75L114.14-0.75Q112.73-2.06 112.78-4.36L112.78-4.36Q113.11-8.63 116.86-8.81L116.86-8.81Q120.05-8.63 120.52-6L120.52-6L119.39-6Q118.92-7.78 116.81-7.83L116.81-7.83Q114.14-7.64 114-4.31L114-4.31Q114-0.75 116.86-0.75L116.86-0.75Q117.89-0.75 118.64-1.31L118.64-1.31Q119.58-2.06 119.53-3.61L119.53-3.61ZM122.63-8.58L123.80-8.58L123.80 0L122.63 0L122.63-8.58ZM132.94-6.05L132.94-6.05L131.81-6.05Q131.39-7.78 129.42-7.83L129.42-7.83Q126.70-7.69 126.61-4.36L126.61-4.36Q126.61-0.80 129.47-0.80L129.47-0.80Q131.44-0.84 131.91-3.19L131.91-3.19L133.03-3.19Q132.52 0.05 129.23 0.14L129.23 0.14Q125.48 0 125.39-4.31L125.39-4.31Q125.58-8.63 129.42-8.81L129.42-8.81Q132.47-8.72 132.94-6.05Z" transform="translate(-0.84375, 8.8125)"></path></g></g></g></g><defs v-gra="od"></defs></svg>